<svg width="684" height="584" viewBox="0 0 684 584" fill="none" xmlns="http://www.w3.org/2000/svg">
<path d="M202 130V519C202 554.622 230.878 583.5 266.5 583.5C302.122 583.5 331 554.622 331 519V444.25C374.816 404.752 432.671 384.528 491.552 388.128L514 389.5V450.797C514 451.927 514.156 453.051 514.464 454.138C518.267 467.56 534.558 472.717 545.392 463.928L549 461L663 348.5L665.778 345.524C675.581 335.02 674.298 318.377 663 309.5L549 197.5L547.622 195.998C535.203 182.465 512.68 192.18 514 210.5V271.5L460.51 268.528C413.788 265.933 367.728 280.504 331 309.5V130H467.5C503.122 130 532 101.122 532 65.5C532 29.8776 503.122 1 467.5 1H327H202H65.5C29.8776 1 1 29.8776 1 65.5C1 101.122 29.8776 130 65.5 130H202Z" fill="#60AB85" stroke="white" stroke-opacity="0.22"/>
</svg>
