<svg width="180" height="73" viewBox="0 0 180 73" fill="none" xmlns="http://www.w3.org/2000/svg">
<path d="M24.7204 15.9451V64.0674C24.7204 68.4484 28.2719 72 32.653 72C37.0341 72 40.5857 68.4484 40.5857 64.0674V54.788C45.9728 49.9073 53.1013 47.4067 60.3568 47.8525L63.0922 48.0206V55.5991C63.0922 55.7375 63.1113 55.8753 63.1488 56.0085C63.6159 57.6653 65.6278 58.3008 66.9618 57.213L67.3968 56.8584L81.4173 42.9528L81.7606 42.5831C82.9673 41.2837 82.809 39.2312 81.4173 38.1322L67.3968 24.2884L67.2377 24.1142C65.7105 22.4416 62.9302 23.6361 63.0922 25.8953V33.4352L56.5308 33.0688C50.7751 32.7475 45.1015 34.5491 40.5857 38.1322V15.9451H57.3335C61.7366 15.9451 65.306 12.3756 65.306 7.97253C65.306 3.56942 61.7366 0 57.3335 0H40.0937H24.7204H7.97253C3.56943 0 0 3.56942 0 7.97253C0 12.3756 3.56943 15.9451 7.97254 15.9451H24.7204Z" fill="#60AB85"/>
<path d="M93.415 61.835C94.185 61.835 94.815 61.7767 95.305 61.66C95.8183 61.52 96.2267 61.345 96.53 61.135C96.8333 60.9017 97.0433 60.6333 97.16 60.33C97.2767 60.0267 97.335 59.6883 97.335 59.315C97.335 58.5217 96.9617 57.8683 96.215 57.355C95.4683 56.8183 94.185 56.2467 92.365 55.64C91.5717 55.36 90.7783 55.045 89.985 54.695C89.1917 54.3217 88.48 53.8667 87.85 53.33C87.22 52.77 86.7067 52.105 86.31 51.335C85.9133 50.5417 85.715 49.585 85.715 48.465C85.715 47.345 85.925 46.3417 86.345 45.455C86.765 44.545 87.36 43.775 88.13 43.145C88.9 42.515 89.8333 42.0367 90.93 41.71C92.0267 41.36 93.2633 41.185 94.64 41.185C96.2733 41.185 97.685 41.36 98.875 41.71C100.065 42.06 101.045 42.445 101.815 42.865L100.24 47.17C99.5633 46.82 98.805 46.5167 97.965 46.26C97.1483 45.98 96.1567 45.84 94.99 45.84C93.6833 45.84 92.7383 46.0267 92.155 46.4C91.595 46.75 91.315 47.2983 91.315 48.045C91.315 48.4883 91.42 48.8617 91.63 49.165C91.84 49.4683 92.1317 49.7483 92.505 50.005C92.9017 50.2383 93.345 50.46 93.835 50.67C94.3483 50.8567 94.9083 51.055 95.515 51.265C96.775 51.7317 97.8717 52.1983 98.805 52.665C99.7383 53.1083 100.508 53.6333 101.115 54.24C101.745 54.8467 102.212 55.5583 102.515 56.375C102.818 57.1917 102.97 58.1833 102.97 59.35C102.97 61.6133 102.177 63.375 100.59 64.635C99.0033 65.8717 96.6117 66.49 93.415 66.49C92.3417 66.49 91.3733 66.42 90.51 66.28C89.6467 66.1633 88.8767 66.0117 88.2 65.825C87.5467 65.6383 86.975 65.44 86.485 65.23C86.0183 65.02 85.6217 64.8217 85.295 64.635L86.835 60.295C87.5583 60.6917 88.445 61.0533 89.495 61.38C90.5683 61.6833 91.875 61.835 93.415 61.835ZM106.821 66V39.68L112.036 38.84V47.66C112.386 47.5433 112.829 47.4383 113.366 47.345C113.926 47.2283 114.463 47.17 114.976 47.17C116.469 47.17 117.706 47.38 118.686 47.8C119.689 48.1967 120.483 48.7683 121.066 49.515C121.673 50.2617 122.093 51.1483 122.326 52.175C122.583 53.2017 122.711 54.345 122.711 55.605V66H117.496V56.235C117.496 54.555 117.274 53.365 116.831 52.665C116.411 51.965 115.618 51.615 114.451 51.615C113.984 51.615 113.541 51.6617 113.121 51.755C112.724 51.825 112.363 51.9067 112.036 52V66H106.821ZM134.466 62.36C134.98 62.36 135.47 62.3483 135.936 62.325C136.403 62.3017 136.776 62.2667 137.056 62.22V58.265C136.846 58.2183 136.531 58.1717 136.111 58.125C135.691 58.0783 135.306 58.055 134.956 58.055C134.466 58.055 134 58.09 133.556 58.16C133.136 58.2067 132.763 58.3117 132.436 58.475C132.11 58.6383 131.853 58.86 131.666 59.14C131.48 59.42 131.386 59.77 131.386 60.19C131.386 61.0067 131.655 61.5783 132.191 61.905C132.751 62.2083 133.51 62.36 134.466 62.36ZM134.046 47.1C135.586 47.1 136.87 47.275 137.896 47.625C138.923 47.975 139.74 48.4767 140.346 49.13C140.976 49.7833 141.42 50.5767 141.676 51.51C141.933 52.4433 142.061 53.4817 142.061 54.625V65.475C141.315 65.6383 140.276 65.825 138.946 66.035C137.616 66.2683 136.006 66.385 134.116 66.385C132.926 66.385 131.841 66.28 130.861 66.07C129.905 65.86 129.076 65.5217 128.376 65.055C127.676 64.565 127.14 63.935 126.766 63.165C126.393 62.395 126.206 61.45 126.206 60.33C126.206 59.2567 126.416 58.3467 126.836 57.6C127.28 56.8533 127.863 56.2583 128.586 55.815C129.31 55.3717 130.138 55.0567 131.071 54.87C132.005 54.66 132.973 54.555 133.976 54.555C134.653 54.555 135.248 54.59 135.761 54.66C136.298 54.7067 136.73 54.7767 137.056 54.87V54.38C137.056 53.4933 136.788 52.7817 136.251 52.245C135.715 51.7083 134.781 51.44 133.451 51.44C132.565 51.44 131.69 51.51 130.826 51.65C129.963 51.7667 129.216 51.9417 128.586 52.175L127.921 47.975C128.225 47.8817 128.598 47.7883 129.041 47.695C129.508 47.5783 130.01 47.485 130.546 47.415C131.083 47.3217 131.643 47.2517 132.226 47.205C132.833 47.135 133.44 47.1 134.046 47.1ZM157.872 52.21C157.405 52.0933 156.857 51.9767 156.227 51.86C155.597 51.72 154.92 51.65 154.197 51.65C153.87 51.65 153.474 51.685 153.007 51.755C152.564 51.8017 152.225 51.86 151.992 51.93V66H146.777V48.57C147.71 48.2433 148.807 47.94 150.067 47.66C151.35 47.3567 152.774 47.205 154.337 47.205C154.617 47.205 154.955 47.2283 155.352 47.275C155.749 47.2983 156.145 47.345 156.542 47.415C156.939 47.4617 157.335 47.5317 157.732 47.625C158.129 47.695 158.467 47.7883 158.747 47.905L157.872 52.21ZM160.326 56.935C160.326 55.3017 160.571 53.8783 161.061 52.665C161.574 51.4283 162.239 50.4017 163.056 49.585C163.873 48.7683 164.806 48.15 165.856 47.73C166.929 47.31 168.026 47.1 169.146 47.1C171.759 47.1 173.824 47.905 175.341 49.515C176.858 51.1017 177.616 53.4467 177.616 56.55C177.616 56.8533 177.604 57.1917 177.581 57.565C177.558 57.915 177.534 58.23 177.511 58.51H165.681C165.798 59.5833 166.299 60.435 167.186 61.065C168.073 61.695 169.263 62.01 170.756 62.01C171.713 62.01 172.646 61.9283 173.556 61.765C174.489 61.5783 175.248 61.3567 175.831 61.1L176.531 65.335C176.251 65.475 175.878 65.615 175.411 65.755C174.944 65.895 174.419 66.0117 173.836 66.105C173.276 66.2217 172.669 66.315 172.016 66.385C171.363 66.455 170.709 66.49 170.056 66.49C168.399 66.49 166.953 66.245 165.716 65.755C164.503 65.265 163.488 64.6 162.671 63.76C161.878 62.8967 161.283 61.8817 160.886 60.715C160.513 59.5483 160.326 58.2883 160.326 56.935ZM172.576 54.94C172.553 54.4967 172.471 54.065 172.331 53.645C172.214 53.225 172.016 52.8517 171.736 52.525C171.479 52.1983 171.141 51.93 170.721 51.72C170.324 51.51 169.823 51.405 169.216 51.405C168.633 51.405 168.131 51.51 167.711 51.72C167.291 51.9067 166.941 52.1633 166.661 52.49C166.381 52.8167 166.159 53.2017 165.996 53.645C165.856 54.065 165.751 54.4967 165.681 54.94H172.576Z" fill="#60AB85"/>
</svg>
